<?xml version="1.0" encoding="UTF-8"?>
<svg width="20px" height="18px" viewBox="0 0 20 18" version="1.1" xmlns="http://www.w3.org/2000/svg" xmlns:xlink="http://www.w3.org/1999/xlink">
    <!-- Generator: Sketch 60.1 (88133) - https://sketch.com -->
    <title>atom/icon/error</title>
    <desc>Created with Sketch.</desc>
    <g id="icons" stroke="none" stroke-width="1" fill="none" fill-rule="evenodd">
        <g id="Custom-Preset-11" transform="translate(-245.000000, -267.000000)" fill="#FFFFFF" fill-rule="nonzero">
            <g id="atom/icon/error" transform="translate(245.000000, 266.000000)">
                <path d="M19.7439907,17.0285975 L16.5405632,11.3772437 C15.9170773,10.3039246 14.9280997,8.52966231 14.3046138,7.4344387 L11.1226858,1.80498935 C10.4991999,0.731670216 9.5102223,0.731670216 8.88673642,1.80498935 L5.70480844,7.45634317 C5.08132255,8.52966231 4.09234494,10.3039246 3.46885905,11.3991482 L0.265431561,17.0285975 C-0.358054326,18.1019166 0.157933994,19 1.38340626,19 L18.626016,19 C19.8514882,19 20.345977,18.1019166 19.7439907,17.0285975 Z M10.628197,15.7143292 C10.4562009,15.8676605 10.2412058,15.9552784 10.0047111,15.9552784 C9.76821646,15.9552784 9.55322133,15.8676605 9.38122522,15.7143292 C9.20922912,15.5609979 9.12323106,15.3419531 9.12323106,15.057195 C9.12323106,14.8162458 9.20922912,14.5972011 9.38122522,14.4219653 C9.55322133,14.2467295 9.76821646,14.1591117 10.0047111,14.1591117 C10.2412058,14.1591117 10.4562009,14.2467295 10.628197,14.4219653 C10.8001931,14.5972011 10.8861912,14.7943413 10.8861912,15.057195 C10.8861912,15.3419531 10.8001931,15.5609979 10.628197,15.7143292 Z M10.8431921,9.12108305 L10.585198,12.0562823 C10.5636985,12.4067539 10.4991999,12.6696075 10.4132019,12.8667478 C10.3272038,13.063888 10.1767072,13.1515059 9.96171208,13.1515059 C9.74671695,13.1515059 9.59622036,13.063888 9.53172182,12.8886523 C9.44572376,12.7134165 9.38122522,12.4286584 9.35972571,12.0562823 L9.16623009,9.20870094 C9.12323106,8.66108914 9.12323106,8.24490417 9.12323106,8.00395497 C9.12323106,7.67538789 9.20922912,7.41253423 9.38122522,7.23729845 C9.55322133,7.06206267 9.76821646,6.95254031 10.0477101,6.95254031 C10.3917024,6.95254031 10.6066975,7.06206267 10.7141951,7.30301186 C10.8216926,7.54396106 10.8861912,7.87252814 10.8861912,8.33252206 C10.8861912,8.59537572 10.8646916,8.85822939 10.8431921,9.12108305 Z" id="Shape"></path>
            </g>
        </g>
    </g>
</svg>