<?xml version="1.0" encoding="UTF-8"?>
<svg width="18px" height="18px" viewBox="0 0 18 18" version="1.1" xmlns="http://www.w3.org/2000/svg" xmlns:xlink="http://www.w3.org/1999/xlink">
    <!-- Generator: Sketch 60.1 (88133) - https://sketch.com -->
    <title>atom/icon/information</title>
    <desc>Created with Sketch.</desc>
    <g id="icons" stroke="none" stroke-width="1" fill="none" fill-rule="evenodd">
        <g id="Custom-Preset-11" transform="translate(-248.000000, -238.000000)" fill="#FFFFFF" fill-rule="nonzero">
            <g id="atom/icon/information" transform="translate(247.000000, 237.000000)">
                <path d="M9.97560976,1 C14.9512195,1 19,5.04878049 19,9.97560976 C19,14.9512195 14.9512195,19 9.97560976,19 C5.04878049,19 1,14.9512195 1,9.97560976 C1,5.04878049 5.04878049,1 9.97560976,1 Z M10.9512195,8.02439024 C10.3170732,8.02439024 8.41463415,7.92682927 7.87804878,8.07317073 C7.43902439,8.17073171 7.43902439,8.6097561 7.7804878,8.75609756 C8.31707317,8.95121951 8.90243902,8.65853659 8.75609756,9.58536585 C8.51219512,11 8.2195122,12.4146341 8.02439024,13.8780488 C7.73170732,16.0731707 12.0243902,15.9268293 12.4634146,14.3170732 C12.5121951,14.0731707 12.3170732,13.9268293 12.1219512,14.0243902 C11.7804878,14.1707317 11.5853659,14.3658537 11.1463415,14.3658537 C10.7073171,14.4146341 10.6585366,13.8780488 10.6585366,13.5853659 C10.8536585,12.2195122 11.195122,10.7560976 11.4390244,9.3902439 C11.4878049,9.09756098 11.5365854,8.85365854 11.5365854,8.56097561 C11.4878049,8.2195122 11.2926829,8.02439024 10.9512195,8.02439024 Z M10.3658537,4.46341463 C9.58536585,4.46341463 8.90243902,5.09756098 8.90243902,5.92682927 C8.90243902,6.70731707 9.53658537,7.3902439 10.3658537,7.3902439 C11.1463415,7.3902439 11.7804878,6.75609756 11.8292683,5.92682927 C11.8292683,5.14634146 11.195122,4.46341463 10.3658537,4.46341463 Z" id="Combined-Shape"></path>
            </g>
        </g>
    </g>
</svg>